<svg xmlns="http://www.w3.org/2000/svg" viewBox="0 0 900 620" role="img">
  <title>Dodecahedral transport</title>

  <style>
    .bg { fill: #fbfaf7; }
    .paper { fill: #fffdf8; stroke: #ded8cc; stroke-width: 2; }
    .ink { fill: none; stroke: #171717; stroke-width: 6; stroke-linecap: round; stroke-linejoin: round; }
    .thin { fill: none; stroke: #3a3a3a; stroke-width: 3; stroke-linecap: round; stroke-linejoin: round; }
    .ghost { fill: none; stroke: #777; stroke-width: 3; stroke-dasharray: 9 9; stroke-linecap: round; stroke-linejoin: round; }
    .membrane { fill: none; stroke: #5f7f86; stroke-width: 38; stroke-linecap: round; opacity: 0.78; }
    .amber { fill: #f2c078; opacity: 0.32; }
    .blue { fill: #9fcbd0; opacity: 0.36; }
    .green { fill: #b8d59a; opacity: 0.35; }
    .red { fill: #c44; opacity: 0.85; }
    .node { fill: #171717; stroke: #171717; stroke-width: 3; }
    .open { fill: #fffdf8; stroke: #171717; stroke-width: 5; }
    .label { font-family: Georgia, "Times New Roman", serif; font-size: 28px; fill: #272727; }
    .small { font-family: Georgia, "Times New Roman", serif; font-size: 18px; fill: #4b4b4b; }
    .caption { font-family: Georgia, "Times New Roman", serif; font-size: 24px; fill: #333; }
  </style>

  <rect class="bg" x="0" y="0" width="900" height="620"/>
  <rect class="paper" x="42" y="38" width="816" height="544" rx="36"/>

  <path class="blue" d="M130 300 L220 135 L390 115 L510 245 L450 430 L270 465 Z"/>
  <path class="green" d="M770 300 L680 135 L510 115 L390 245 L450 430 L630 465 Z"/>
  <path class="ink" d="M130 300 L220 135 L390 115 L510 245 L450 430 L270 465 Z"/>
  <path class="ink" d="M770 300 L680 135 L510 115 L390 245 L450 430 L630 465 Z"/>
  <path class="thin" d="M220 135 L325 275 L510 245"/>
  <path class="thin" d="M270 465 L325 275 L450 430"/>
  <path class="thin" d="M680 135 L575 275 L390 245"/>
  <path class="thin" d="M630 465 L575 275 L450 430"/>
  <rect class="amber" x="392" y="240" width="116" height="190" rx="32"/>
  <rect class="thin" x="392" y="240" width="116" height="190" rx="32"/>
  <text class="caption" x="235" y="545">Two closure bodies share an outside as a transport seam.</text>

</svg>
