<svg xmlns="http://www.w3.org/2000/svg" viewBox="0 0 900 620" role="img">
  <title>Formal graph lens</title>

  <style>
    .bg { fill: #fbfaf7; }
    .paper { fill: #fffdf8; stroke: #ded8cc; stroke-width: 2; }
    .ink { fill: none; stroke: #171717; stroke-width: 6; stroke-linecap: round; stroke-linejoin: round; }
    .thin { fill: none; stroke: #3a3a3a; stroke-width: 3; stroke-linecap: round; stroke-linejoin: round; }
    .ghost { fill: none; stroke: #777; stroke-width: 3; stroke-dasharray: 9 9; stroke-linecap: round; stroke-linejoin: round; }
    .membrane { fill: none; stroke: #5f7f86; stroke-width: 38; stroke-linecap: round; opacity: 0.78; }
    .amber { fill: #f2c078; opacity: 0.32; }
    .blue { fill: #9fcbd0; opacity: 0.36; }
    .green { fill: #b8d59a; opacity: 0.35; }
    .red { fill: #c44; opacity: 0.85; }
    .node { fill: #171717; stroke: #171717; stroke-width: 3; }
    .open { fill: #fffdf8; stroke: #171717; stroke-width: 5; }
    .label { font-family: Georgia, "Times New Roman", serif; font-size: 28px; fill: #272727; }
    .small { font-family: Georgia, "Times New Roman", serif; font-size: 18px; fill: #4b4b4b; }
    .caption { font-family: Georgia, "Times New Roman", serif; font-size: 24px; fill: #333; }
  </style>

  <rect class="bg" x="0" y="0" width="900" height="620"/>
  <rect class="paper" x="42" y="38" width="816" height="544" rx="36"/>

  <ellipse class="blue" cx="300" cy="290" rx="170" ry="205"/>
  <ellipse class="green" cx="600" cy="290" rx="170" ry="205"/>
  <ellipse class="ink" cx="300" cy="290" rx="170" ry="205"/>
  <ellipse class="ink" cx="600" cy="290" rx="170" ry="205"/>
  <path class="thin" d="M110 290 L790 290"/>
  <path class="thin" d="M430 95 L430 485"/>
  <path class="thin" d="M470 95 L470 485"/>
  <circle class="node" cx="420" cy="235" r="17"/>
  <circle class="node" cx="480" cy="235" r="17"/>
  <circle class="node" cx="420" cy="345" r="17"/>
  <circle class="node" cx="480" cy="345" r="17"/>
  <path class="thin" d="M220 145 L480 345"/>
  <path class="thin" d="M220 435 L480 235"/>
  <path class="thin" d="M680 145 L420 345"/>
  <path class="thin" d="M680 435 L420 235"/>
  <text class="caption" x="228" y="545">The formal graph makes the transport roles accountable.</text>

</svg>
