<svg xmlns="http://www.w3.org/2000/svg" viewBox="0 0 720 520" role="img">
  <title>10-dodecahedral-transport.svg</title>

  <style>
    .bg { fill: #fbfbfb; }
    .line { fill: none; stroke: #111; stroke-width: 5; stroke-linecap: round; stroke-linejoin: round; }
    .thin { fill: none; stroke: #555; stroke-width: 3; stroke-linecap: round; stroke-linejoin: round; }
    .dash { fill: none; stroke: #777; stroke-width: 3; stroke-dasharray: 9 8; stroke-linecap: round; stroke-linejoin: round; }
    .soft { fill: #f1f1f1; stroke: #555; stroke-width: 3; }
    .mem { fill: none; stroke: #777; stroke-width: 34; stroke-linecap: round; }
    .node { fill: #111; stroke: #111; stroke-width: 3; }
    .open { fill: #fbfbfb; stroke: #111; stroke-width: 5; }
    .accent { fill: #e7e7e7; stroke: #111; stroke-width: 4; opacity: 0.85; }
    .label { font-family: system-ui, -apple-system, BlinkMacSystemFont, "Segoe UI", sans-serif; font-size: 19px; fill: #222; }
    .small { font-family: system-ui, -apple-system, BlinkMacSystemFont, "Segoe UI", sans-serif; font-size: 15px; fill: #444; }
    .tag { fill: rgba(255,255,255,0.82); stroke: rgba(0,0,0,0.08); stroke-width: 1; }
  </style>

  <rect class="bg" x="0" y="0" width="720" height="520" rx="28"/>

  <path class="line" d="M100 255 L165 135 L300 118 L386 210 L344 356 L210 385 Z"/>
  <path class="thin" d="M165 135 L245 228 L386 210"/>
  <path class="thin" d="M210 385 L245 228 L344 356"/>
  <path class="line" d="M620 255 L555 135 L420 118 L334 210 L376 356 L510 385 Z"/>
  <path class="thin" d="M555 135 L475 228 L334 210"/>
  <path class="thin" d="M510 385 L475 228 L376 356"/>
  <rect class="accent" x="334" y="210" width="52" height="146" rx="18"/>
  <path class="thin" d="M344 235 L376 235"/>
  <path class="thin" d="M344 285 L376 285"/>
  <text class="small" x="252" y="430">shared transport seam</text>

</svg>
