<svg xmlns="http://www.w3.org/2000/svg" viewBox="0 0 720 520" role="img">
  <title>10-dodecahedral-transport.svg</title>
  <style>
    .bg { fill: #fbfbfb; }
    .line { fill: none; stroke: #111; stroke-width: 5; stroke-linecap: round; stroke-linejoin: round; }
    .thin { fill: none; stroke: #555; stroke-width: 3; stroke-linecap: round; stroke-linejoin: round; }
    .dash { fill: none; stroke: #777; stroke-width: 3; stroke-dasharray: 9 8; stroke-linecap: round; stroke-linejoin: round; }
    .soft { fill: #f1f1f1; stroke: #555; stroke-width: 3; }
    .mem { fill: none; stroke: #777; stroke-width: 34; stroke-linecap: round; }
    .node { fill: #111; stroke: #111; stroke-width: 3; }
    .open { fill: #fbfbfb; stroke: #111; stroke-width: 5; }
    .accent { fill: #dcdcdc; stroke: #111; stroke-width: 4; }
    .label { font-family: system-ui, -apple-system, BlinkMacSystemFont, "Segoe UI", sans-serif; font-size: 24px; fill: #222; }
    .small { font-size: 19px; fill: #444; }
    .tiny { font-size: 16px; fill: #444; }
  </style>
  <rect class="bg" x="0" y="0" width="720" height="520" rx="28"/>

  <path class="line" d="M95 260 L160 135 L305 115 L395 215 L350 360 L205 390 Z"/>
  <path class="thin" d="M160 135 L245 230 L395 215"/>
  <path class="thin" d="M205 390 L245 230 L350 360"/>
  <path class="line" d="M625 260 L560 135 L415 115 L325 215 L370 360 L515 390 Z"/>
  <path class="thin" d="M560 135 L475 230 L325 215"/>
  <path class="thin" d="M515 390 L475 230 L370 360"/>
  <path class="thin" d="M350 235 L370 235"/>
  <path class="thin" d="M350 285 L370 285"/>
  <rect class="accent" x="325" y="215" width="70" height="145" rx="18" style="fill:#e7e7e7;opacity:.85"/>
  <text class="small" x="255" y="462">shared transport seam</text>
  <text class="small" x="118" y="78">left closure body</text>
  <text class="small" x="442" y="78">right closure body</text>

</svg>
