<svg xmlns="http://www.w3.org/2000/svg" viewBox="0 0 720 520" role="img">
  <title>13-ladder.svg</title>
  <style>
    .bg { fill: #fbfbfb; }
    .line { fill: none; stroke: #111; stroke-width: 5; stroke-linecap: round; stroke-linejoin: round; }
    .thin { fill: none; stroke: #555; stroke-width: 3; stroke-linecap: round; stroke-linejoin: round; }
    .dash { fill: none; stroke: #777; stroke-width: 3; stroke-dasharray: 9 8; stroke-linecap: round; stroke-linejoin: round; }
    .soft { fill: #f1f1f1; stroke: #555; stroke-width: 3; }
    .mem { fill: none; stroke: #777; stroke-width: 34; stroke-linecap: round; }
    .node { fill: #111; stroke: #111; stroke-width: 3; }
    .open { fill: #fbfbfb; stroke: #111; stroke-width: 5; }
    .accent { fill: #dcdcdc; stroke: #111; stroke-width: 4; }
    .label { font-family: system-ui, -apple-system, BlinkMacSystemFont, "Segoe UI", sans-serif; font-size: 24px; fill: #222; }
    .small { font-size: 19px; fill: #444; }
    .tiny { font-size: 16px; fill: #444; }
  </style>
  <rect class="bg" x="0" y="0" width="720" height="520" rx="28"/>

  <path class="thin" d="M140 82 L140 438"/>
  <path class="thin" d="M580 82 L580 438"/>
  <text class="label" x="190" y="110">circle</text>
  <text class="label" x="190" y="155">boundary</text>
  <text class="label" x="190" y="200">body</text>
  <text class="label" x="190" y="245">membrane</text>
  <text class="label" x="190" y="290">port</text>
  <text class="label" x="190" y="335">hinge</text>
  <text class="label" x="190" y="380">closure</text>
  <text class="label" x="190" y="425">thalion</text>
  <path class="thin" d="M140 105 L175 105"/>
  <path class="thin" d="M140 150 L175 150"/>
  <path class="thin" d="M140 195 L175 195"/>
  <path class="thin" d="M140 240 L175 240"/>
  <path class="thin" d="M140 285 L175 285"/>
  <path class="thin" d="M140 330 L175 330"/>
  <path class="thin" d="M140 375 L175 375"/>
  <path class="thin" d="M140 420 L175 420"/>

</svg>
