<svg xmlns="http://www.w3.org/2000/svg" viewBox="0 0 720 520" role="img">
  <title>13-ladder.svg</title>

  <style>
    .bg { fill: #fbfbfb; }
    .line { fill: none; stroke: #111; stroke-width: 5; stroke-linecap: round; stroke-linejoin: round; }
    .thin { fill: none; stroke: #555; stroke-width: 3; stroke-linecap: round; stroke-linejoin: round; }
    .dash { fill: none; stroke: #777; stroke-width: 3; stroke-dasharray: 9 8; stroke-linecap: round; stroke-linejoin: round; }
    .soft { fill: #f1f1f1; stroke: #555; stroke-width: 3; }
    .mem { fill: none; stroke: #777; stroke-width: 34; stroke-linecap: round; }
    .node { fill: #111; stroke: #111; stroke-width: 3; }
    .open { fill: #fbfbfb; stroke: #111; stroke-width: 5; }
    .accent { fill: #e7e7e7; stroke: #111; stroke-width: 4; opacity: 0.85; }
    .label { font-family: system-ui, -apple-system, BlinkMacSystemFont, "Segoe UI", sans-serif; font-size: 19px; fill: #222; }
    .small { font-family: system-ui, -apple-system, BlinkMacSystemFont, "Segoe UI", sans-serif; font-size: 15px; fill: #444; }
    .tag { fill: rgba(255,255,255,0.82); stroke: rgba(0,0,0,0.08); stroke-width: 1; }
  </style>

  <rect class="bg" x="0" y="0" width="720" height="520" rx="28"/>

  <path class="thin" d="M140 82 L140 438"/>
  <path class="thin" d="M580 82 L580 438"/>
  <text class="label" x="190" y="110">circle</text>
  <text class="label" x="190" y="155">boundary</text>
  <text class="label" x="190" y="200">body</text>
  <text class="label" x="190" y="245">membrane</text>
  <text class="label" x="190" y="290">port</text>
  <text class="label" x="190" y="335">hinge</text>
  <text class="label" x="190" y="380">closure</text>
  <text class="label" x="190" y="425">thalion</text>
  <path class="thin" d="M140 105 L175 105 M140 150 L175 150 M140 195 L175 195 M140 240 L175 240 M140 285 L175 285 M140 330 L175 330 M140 375 L175 375 M140 420 L175 420"/>

</svg>
