<svg xmlns="http://www.w3.org/2000/svg" viewBox="0 0 720 520" role="img">
  <title>14-progression.svg</title>

  <style>
    .bg { fill: #fbfbfb; }
    .line { fill: none; stroke: #111; stroke-width: 5; stroke-linecap: round; stroke-linejoin: round; }
    .thin { fill: none; stroke: #555; stroke-width: 3; stroke-linecap: round; stroke-linejoin: round; }
    .dash { fill: none; stroke: #777; stroke-width: 3; stroke-dasharray: 9 8; stroke-linecap: round; stroke-linejoin: round; }
    .soft { fill: #f1f1f1; stroke: #555; stroke-width: 3; }
    .mem { fill: none; stroke: #777; stroke-width: 34; stroke-linecap: round; }
    .node { fill: #111; stroke: #111; stroke-width: 3; }
    .open { fill: #fbfbfb; stroke: #111; stroke-width: 5; }
    .accent { fill: #e7e7e7; stroke: #111; stroke-width: 4; opacity: 0.85; }
    .label { font-family: system-ui, -apple-system, BlinkMacSystemFont, "Segoe UI", sans-serif; font-size: 19px; fill: #222; }
    .small { font-family: system-ui, -apple-system, BlinkMacSystemFont, "Segoe UI", sans-serif; font-size: 15px; fill: #444; }
    .tag { fill: rgba(255,255,255,0.82); stroke: rgba(0,0,0,0.08); stroke-width: 1; }
  </style>

  <rect class="bg" x="0" y="0" width="720" height="520" rx="28"/>

  <circle class="thin" cx="90" cy="250" r="42"/>
  <circle class="line" cx="190" cy="250" r="42"/>
  <circle class="line" cx="295" cy="250" r="45"/>
  <path class="thin" d="M295 213 L332 250 L295 287 L258 250 Z"/>
  <circle class="node" cx="295" cy="250" r="8"/>
  <circle class="mem" cx="410" cy="250" r="45" style="stroke-width:15"/>
  <circle class="node" cx="410" cy="205" r="7"/>
  <circle class="node" cx="410" cy="295" r="7"/>
  <circle class="dash" cx="525" cy="250" r="54"/>
  <circle class="node" cx="525" cy="250" r="8"/>
  <ellipse class="line" cx="640" cy="250" rx="42" ry="58"/>
  <path class="thin" d="M130 250 L150 250 M235 250 L250 250 M345 250 L365 250 M460 250 L485 250 M585 250 L595 250"/>
  <text class="small" x="68" y="330">circle</text>
  <text class="small" x="158" y="330">boundary</text>
  <text class="small" x="278" y="330">body</text>
  <text class="small" x="388" y="330">ported</text>
  <text class="small" x="502" y="330">closure</text>
  <text class="small" x="618" y="330">graph</text>

</svg>
